first trial
nRows=36
nColumns=38

# SIMM Motion File Header:
name Sujet_02_velo_100.mvnx
datacolumns 38
datarows 36
otherdata 1
range 7.8500 8.4330
endheader
time pelvis_tilt  pelvis_list  pelvis_rotation  pelvis_tx  pelvis_ty  pelvis_tz  hip_flexion_r  hip_adduction_r  hip_rotation_r  knee_angle_r  ankle_angle_r  subtalar_angle_r  mtp_angle_r  hip_flexion_l  hip_adduction_l  hip_rotation_l  knee_angle_l  ankle_angle_l  subtalar_angle_l  mtp_angle_l  lumbar_extension  lumbar_bending  lumbar_rotation  arm_flex_r  arm_add_r  arm_rot_r  elbow_flex_r  pro_sup_r  wrist_flex_r  wrist_dev_r  arm_flex_l  arm_add_l  arm_rot_l  elbow_flex_l  pro_sup_l  wrist_flex_l  wrist_dev_l
7.8500	2.5005	0.7023	-81.3803	-2.0529	7.5087	11.7257	37.6708	-3.6184	-4.2227	76.2142	-1.1427	-5.2466	-0.0000	66.2097	8.6056	-0.6156	80.4305	-19.1971	-12.9310	-0.0000	-27.2800	3.1191	2.8078	89.8718	-17.4660	38.0004	6.5207	75.9243	-4.8173	8.1492	95.6071	12.9497	38.4919	-3.1643	87.4769	-14.2166	-1.5525	
7.8660	2.2623	0.5100	-81.3773	-2.0547	7.5246	11.7518	40.6565	-4.0799	-3.3077	82.4148	-0.2624	-4.8402	0.0000	63.4320	8.0284	-1.0696	74.9686	-18.9250	-11.9933	-0.0000	-27.1180	3.3187	2.8346	90.0839	-17.2442	38.1478	5.9366	75.9993	-4.7649	8.2628	95.8232	13.0158	38.4059	-3.6422	86.9856	-14.3601	-1.6127	
7.8830	1.9862	0.3457	-81.4238	-2.0566	7.5399	11.7781	43.9914	-4.5349	-2.4685	88.7223	0.6395	-4.5786	-0.0000	59.7698	7.3199	-1.2612	68.9109	-18.4345	-11.0156	-0.0000	-26.8880	3.5022	2.8191	90.2442	-16.9354	38.2677	5.3788	76.1283	-4.7224	8.4614	96.0027	12.8946	38.4315	-4.0247	86.4458	-14.6624	-1.7828	
7.9000	1.7430	0.2399	-81.5550	-2.0586	7.5552	11.8039	47.4720	-4.9194	-1.9504	94.5188	1.4833	-4.3625	0.0000	55.9834	6.5144	-1.4611	63.1587	-18.1585	-10.2035	-0.0000	-26.6624	3.6437	2.7586	90.4509	-16.4942	38.4208	4.7488	76.2620	-4.7308	8.6522	96.1129	12.6358	38.4693	-4.3561	86.1192	-15.1481	-2.2262	
7.9160	1.5338	0.2287	-81.8198	-2.0611	7.5715	11.8292	51.4075	-5.3053	-2.0425	100.1097	2.4005	-3.9764	-0.0000	52.1587	5.5913	-1.7232	57.7612	-18.2766	-9.7080	0.0000	-26.4827	3.7237	2.6391	90.7633	-15.9019	38.6441	4.0339	76.3961	-4.8315	8.8139	96.1428	12.1959	38.4834	-4.6447	86.1736	-15.8992	-3.0698	
7.9330	1.3573	0.2753	-82.1686	-2.0638	7.5879	11.8541	55.4769	-5.6723	-2.4643	105.1442	3.2550	-3.6245	0.0000	48.2046	4.5994	-2.0273	52.6901	-18.6311	-9.4386	0.0000	-26.3067	3.7622	2.4755	91.1162	-15.1749	38.8944	3.2464	76.5327	-4.9846	8.9664	96.1031	11.6196	38.5101	-4.8820	86.4423	-16.8486	-4.1996	
7.9500	1.2805	0.3028	-82.4892	-2.0664	7.6031	11.8785	58.5330	-5.7935	-2.6297	108.0355	3.5850	-3.8494	-0.0000	44.6077	3.6964	-2.4744	48.7126	-19.1606	-9.2768	-0.0000	-26.0809	3.7915	2.3093	91.4229	-14.3211	39.1112	2.3250	76.6315	-5.1093	9.0788	95.9934	11.0888	38.5576	-5.0892	86.6821	-17.7771	-5.3986	
7.9660	1.3563	0.2841	-82.7620	-2.0688	7.6156	11.9023	59.8806	-5.4759	-2.2573	107.5567	2.7943	-5.0790	0.0000	41.4113	2.8808	-3.1090	45.9698	-20.0081	-9.1679	-0.0000	-25.7432	3.8115	2.1469	91.6554	-13.2770	39.2828	1.1930	76.6738	-5.1884	9.1001	95.8142	10.6820	38.6002	-5.2884	86.7997	-18.6671	-6.6660	
7.9830	1.5323	0.2482	-83.0070	-2.0711	7.6269	11.9256	60.2122	-4.8946	-1.6414	104.9401	1.4945	-6.8956	-0.0000	38.5674	2.1519	-3.8445	44.3015	-21.0304	-9.1724	-0.0000	-25.3560	3.8214	1.9817	91.8448	-12.1087	39.4152	-0.0730	76.6760	-5.2387	9.0818	95.5630	10.3230	38.6637	-5.4566	86.8874	-19.5026	-7.9723	
8.0000	1.7184	0.2032	-83.1719	-2.0733	7.6394	11.9490	60.4718	-4.3343	-1.0726	102.3089	1.0453	-8.5968	-0.0000	36.4311	1.6370	-4.5335	44.0085	-21.7324	-9.3406	0.0000	-25.0538	3.8532	1.8344	91.9969	-11.0203	39.4823	-1.3036	76.6487	-5.2323	9.1457	95.2361	9.9610	38.8320	-5.5501	86.9769	-20.0412	-9.0361	
8.0160	1.8803	0.1387	-83.2136	-2.0753	7.6546	11.9728	61.0579	-3.8630	-0.6372	100.4845	2.2700	-10.0840	-0.0000	35.1579	1.3784	-5.2151	45.3430	-21.8620	-9.7837	0.0000	-24.8980	3.9286	1.7130	92.1580	-10.0461	39.4222	-2.5062	76.5839	-5.1424	9.4127	94.8888	9.5482	39.1330	-5.5400	87.2156	-20.1162	-9.7548	
8.0330	2.0519	0.0644	-83.1753	-2.0772	7.6710	11.9967	61.5744	-3.4144	-0.2476	98.6493	4.3392	-11.5173	-0.0000	34.5993	1.2934	-5.8090	48.0388	-21.6788	-10.3979	-0.0000	-24.8272	4.0254	1.6086	92.2856	-9.1537	39.3050	-3.6726	76.4819	-5.0053	9.7588	94.4699	9.1290	39.5338	-5.4588	87.4541	-19.8861	-10.2347	
8.0500	2.2460	0.0176	-83.1342	-2.0795	7.6878	12.0207	61.7794	-3.0635	0.0581	96.4868	6.1396	-12.5676	-0.0000	34.6571	1.3097	-5.9843	51.6429	-21.4509	-10.9205	0.0000	-24.7921	4.1095	1.5165	92.2494	-8.4465	39.3091	-4.6113	76.3748	-4.8817	9.9410	93.8179	8.7889	40.0272	-5.3578	87.2773	-19.6141	-10.5126	
8.0660	2.4869	-0.0029	-83.1174	-2.0826	7.7047	12.0445	61.7156	-2.8690	0.3417	94.0560	7.4030	-13.0493	-0.0000	35.3615	1.4292	-5.4861	56.2290	-21.2470	-11.2681	0.0000	-24.7869	4.1917	1.4471	91.8965	-8.0079	39.5823	-5.1769	76.2909	-4.7876	9.8132	92.7383	8.5499	40.7345	-5.2471	86.3092	-19.3361	-10.5436	
8.0830	2.7502	0.0042	-83.0980	-2.0862	7.7219	12.0683	61.3428	-2.7764	0.5470	91.3136	8.4055	-13.1260	-0.0000	36.6795	1.6721	-4.5750	61.7420	-20.9945	-11.5451	0.0000	-24.8172	4.2613	1.3901	91.3793	-7.7527	39.9813	-5.5148	76.2140	-4.6851	9.5256	91.4276	8.3841	41.5369	-5.1103	84.9261	-19.0726	-10.3963	
8.1000	2.9751	0.0806	-83.0738	-2.0898	7.7386	12.0924	60.2948	-2.6925	0.4619	87.7920	8.8516	-12.9311	0.0000	38.4190	1.9877	-3.6985	67.5475	-20.7424	-11.7538	-0.0000	-24.8513	4.2519	1.3106	91.0268	-7.5301	40.2475	-5.8698	76.1163	-4.5592	9.2799	90.3073	8.3077	42.0686	-4.9670	83.8395	-19.0283	-10.2443	
8.1160	3.1392	0.2920	-83.0762	-2.0936	7.7541	12.1169	58.3462	-2.5864	-0.1242	83.0764	8.4950	-12.2933	0.0000	40.5394	2.3875	-2.9992	73.5703	-20.4312	-11.8388	-0.0000	-24.8734	4.1050	1.1920	90.9918	-7.2583	40.2817	-6.3486	75.9675	-4.3885	9.1671	89.4707	8.3807	42.0850	-4.8172	83.2827	-19.2704	-10.0808	
8.1330	3.2651	0.5727	-83.0742	-2.0975	7.7691	12.1418	55.7264	-2.4611	-1.0025	77.5812	7.5929	-11.3401	-0.0000	43.0850	2.8572	-2.3579	79.8840	-20.1167	-11.8388	-0.0000	-24.8997	3.8791	1.0514	91.1246	-7.0223	40.1820	-6.8397	75.8048	-4.2059	9.0959	88.8216	8.5463	41.8322	-4.6648	83.0231	-19.7001	-9.9007	
8.1500	3.3605	0.7665	-82.9713	-2.1009	7.7843	12.1664	52.7507	-2.2824	-1.7565	72.0755	6.5882	-10.6431	0.0000	45.9950	3.2889	-1.8176	86.0858	-20.0226	-11.8692	-0.0000	-24.9466	3.6836	0.9040	91.2991	-6.9218	39.9872	-7.2626	75.6983	-4.0932	8.9938	88.4957	8.6509	41.6764	-4.5451	83.0718	-20.2352	-9.8606	
8.1660	3.4246	0.7951	-82.7028	-2.1036	7.8002	12.1906	49.3775	-2.0155	-2.2271	66.6295	5.6738	-10.5194	0.0000	49.7014	3.6048	-1.4805	92.8725	-20.2542	-11.9519	0.0000	-25.0366	3.5675	0.7247	91.5363	-6.9946	39.6282	-7.6419	75.7301	-4.0713	8.8683	88.6289	8.5902	41.7941	-4.5420	83.5500	-21.0265	-10.1762	
8.1830	3.4579	0.7364	-82.3327	-2.1058	7.8163	12.2147	45.6494	-1.6833	-2.5686	61.1687	4.6369	-10.6564	0.0000	53.7730	3.8988	-1.2511	99.5492	-20.7058	-12.0378	-0.0000	-25.1481	3.4831	0.5385	91.8090	-7.2037	39.1751	-7.9566	75.8179	-4.1243	8.7084	89.0846	8.4770	42.0128	-4.5702	84.3373	-21.9478	-10.6487	
8.2000	3.4704	0.6684	-81.9577	-2.1079	7.8318	12.2387	42.0049	-1.3708	-2.8385	56.2489	3.3132	-10.7012	-0.0000	56.8502	4.3279	-0.8560	103.6244	-21.2849	-12.1315	-0.0000	-25.2305	3.3932	0.4364	91.9195	-7.5303	38.8797	-8.0570	75.7797	-4.2799	8.4116	89.5898	8.4793	42.1698	-4.4146	85.0825	-22.4539	-10.7670	
8.2160	3.4412	0.6008	-81.5663	-2.1099	7.8456	12.2630	38.4331	-1.1139	-2.9995	51.7895	1.3910	-10.5044	0.0000	57.9853	4.9882	-0.0638	103.1403	-22.2030	-12.1917	-0.0000	-25.2399	3.2848	0.4625	91.7451	-8.0039	38.9011	-7.8060	75.4889	-4.6307	7.8194	90.1011	8.6943	42.1906	-3.8999	85.6961	-22.2207	-10.2366	
8.2330	3.3909	0.5243	-81.1700	-2.1117	7.8586	12.2872	34.9412	-0.8902	-3.0957	47.8679	-0.8155	-10.2135	0.0000	58.1133	5.7533	0.9349	100.0534	-23.2424	-12.3054	0.0000	-25.2188	3.1698	0.5720	91.4084	-8.5896	39.0780	-7.3314	75.0660	-5.1043	7.0780	90.6608	9.0243	42.1445	-3.2040	86.2686	-21.5719	-9.3596	
8.2500	3.3936	0.4865	-80.9000	-2.1139	7.8733	12.3110	31.9946	-0.7098	-3.3120	45.2796	-2.5162	-9.9349	0.0000	58.7062	6.4706	1.7589	97.7409	-23.6593	-12.6696	-0.0000	-25.2463	3.0488	0.7219	91.0833	-9.1719	39.1818	-6.8871	74.6985	-5.4598	6.5579	91.1259	9.3383	42.0800	-2.6448	86.7164	-20.8686	-8.4660	
8.2660	3.5108	0.5225	-80.8269	-2.1165	7.8908	12.3339	29.6660	-0.5775	-3.7599	44.3198	-3.4247	-9.7647	0.0000	60.6330	7.1392	2.2508	97.9488	-22.9324	-13.5820	-0.0000	-25.3688	2.9144	0.9200	90.8359	-9.7744	39.1309	-6.5618	74.4658	-5.5664	6.4471	91.4410	9.6165	41.9675	-2.3243	87.0088	-20.1287	-7.5535	
8.2830	3.6814	0.5970	-80.8801	-2.1195	7.9099	12.3563	27.8814	-0.5023	-4.3306	44.6974	-3.8267	-9.6100	0.0000	63.0370	7.7678	2.5414	98.9175	-21.5334	-14.8385	0.0000	-25.5396	2.7742	1.1584	90.6033	-10.3754	39.0052	-6.2760	74.2893	-5.5273	6.5755	91.6624	9.8763	41.8385	-2.1410	87.1749	-19.3322	-6.6168	
8.3000	3.7948	0.6514	-80.9773	-2.1222	7.9288	12.3793	26.8855	-0.5063	-4.8766	46.3323	-3.7855	-9.3215	-0.0000	64.8099	8.2496	2.6703	98.7840	-20.2654	-15.7732	0.0000	-25.6985	2.6511	1.3710	90.3654	-10.7927	38.8244	-6.0388	74.1232	-5.4362	6.7869	91.8163	10.0408	41.8351	-2.1073	87.2188	-18.7259	-5.9270	
8.3160	3.8092	0.6758	-81.1094	-2.1243	7.9467	12.4033	26.8234	-0.5783	-5.5141	49.3862	-3.1829	-8.8632	0.0000	65.4663	8.5449	2.7148	96.6998	-19.3755	-16.0287	0.0000	-25.8361	2.5310	1.5355	90.0926	-10.8948	38.5254	-5.8662	73.9428	-5.2947	7.0816	91.8979	10.0391	42.0910	-2.2741	87.0941	-18.4238	-5.6325	
8.3330	3.7668	0.6800	-81.2852	-2.1262	7.9644	12.4279	27.5468	-0.7485	-6.1271	53.7001	-2.1308	-8.2889	-0.0000	65.4907	8.6849	2.6253	93.5321	-18.6754	-15.8527	-0.0000	-25.9616	2.4275	1.6742	89.8169	-10.8130	38.1771	-5.7419	73.7730	-5.0970	7.4617	91.9132	9.9415	42.4722	-2.5879	86.8479	-18.2888	-5.5655	
8.3500	3.6837	0.6338	-81.4493	-2.1283	7.9819	12.4528	28.8625	-1.0909	-6.2157	58.7076	-1.0392	-7.5909	-0.0000	65.2261	8.6748	2.2638	90.0053	-18.3621	-15.3933	0.0000	-26.0439	2.4051	1.7889	89.6080	-10.7614	37.9972	-5.6266	73.6424	-4.9348	7.7661	91.9052	9.8809	42.7175	-2.9071	86.6232	-18.1809	-5.5172	
8.3660	3.5666	0.5004	-81.5617	-2.1309	7.9996	12.4781	30.8098	-1.6582	-5.3237	64.4606	0.0156	-6.6926	0.0000	64.9726	8.5340	1.4206	86.4258	-18.7105	-14.5232	-0.0000	-26.0747	2.5165	1.8799	89.4946	-10.8435	38.1199	-5.5192	73.5432	-4.8497	7.9087	91.8871	9.9302	42.6707	-3.1780	86.4760	-18.0328	-5.3704	
8.3830	3.4093	0.3167	-81.6629	-2.1336	8.0172	12.5037	33.3752	-2.3332	-3.8878	70.8990	1.1156	-5.6751	0.0000	64.4287	8.2551	0.3005	82.4707	-19.4378	-13.3370	-0.0000	-26.0633	2.7098	1.9479	89.4481	-10.9569	38.4105	-5.4215	73.4831	-4.8065	7.9715	91.8459	10.0156	42.4878	-3.4561	86.3500	-17.9112	-5.2409	
8.4000	3.2090	0.1633	-81.8178	-2.1364	8.0343	12.5294	36.2714	-2.9605	-2.7536	77.3092	2.0774	-4.7582	-0.0000	63.0366	7.8144	-0.6253	77.9248	-19.9033	-12.3252	0.0000	-26.0041	2.8929	1.9962	89.4503	-11.0068	38.6809	-5.2987	73.5140	-4.7833	8.0443	91.7843	10.0497	42.3752	-3.7651	86.2180	-17.8795	-5.2722	
8.4160	2.9438	0.0817	-82.0737	-2.1393	8.0502	12.5553	39.4618	-3.5676	-2.2707	83.6038	2.7197	-3.9435	-0.0000	60.3660	7.1837	-1.2158	72.4284	-19.7157	-11.6800	-0.0000	-25.8746	3.0316	2.0186	89.4736	-10.9728	38.8737	-5.1176	73.7018	-4.7884	8.1331	91.6813	10.0210	42.4122	-4.1660	86.0950	-18.0041	-5.5763	
8.4330	2.6355	0.0291	-82.3831	-2.1422	8.0657	12.5814	42.9666	-4.1657	-2.0890	89.8595	3.2168	-3.2268	0.0000	56.8519	6.4134	-1.6784	66.3558	-19.2652	-11.1692	0.0000	-25.6972	3.1613	2.0212	89.5440	-10.8744	39.0458	-4.9099	73.9819	-4.8136	8.2320	91.5575	9.9422	42.5200	-4.5956	85.9690	-18.2312	-6.0495	
